<svg width="24" height="24" viewBox="0 0 24 24" fill="none" xmlns="http://www.w3.org/2000/svg">
<path d="M22 8.71874V11.8437C22 12.2753 21.6503 12.625 21.2187 12.625H20.705L20.3758 15.5542C20.331 15.9534 19.9928 16.2482 19.6004 16.2483C19.5712 16.2483 19.5419 16.2467 19.5122 16.2433C19.0834 16.1952 18.7749 15.8084 18.8231 15.3798L19.2302 11.7566C19.2746 11.3614 19.6088 11.0625 20.0066 11.0625H20.4376V9.49999H3.56251V11.0625H16.8829C17.3144 11.0625 17.6642 11.4124 17.6642 11.8437C17.6642 12.2753 17.3144 12.625 16.8829 12.625H4.8818L5.65329 19.061C5.74728 19.8458 6.41425 20.4375 7.20466 20.4375H16.8581C17.6543 20.4375 18.3218 19.8407 18.4108 19.0494C18.4589 18.6206 18.8455 18.3123 19.2743 18.3603C19.7031 18.4085 20.0116 18.7952 19.9635 19.224C19.7856 20.8065 18.4506 22 16.8581 22H7.20466C5.62384 22 4.2899 20.8164 4.10176 19.2469L3.30815 12.625H2.78126C2.34973 12.625 2 12.2753 2 11.8437V8.71874C2 8.28722 2.34973 7.93749 2.78126 7.93749H5.55227L9.68057 2.31874C9.936 1.97114 10.4249 1.89622 10.7726 2.1518C11.1204 2.40724 11.1952 2.89613 10.9397 3.24388L7.49122 7.93749H16.5378L13.0891 3.24388C12.8337 2.89613 12.9084 2.40724 13.2562 2.1518C13.6039 1.89622 14.0928 1.97099 14.3484 2.31874L18.4766 7.93749H21.2187C21.6503 7.93749 22 8.28737 22 8.71874ZM11.2188 14.9687V18.0937C11.2188 18.5253 11.5686 18.875 12.0001 18.875C12.4314 18.875 12.7813 18.5253 12.7813 18.0937V14.9687C12.7813 14.5372 12.4314 14.1875 12.0001 14.1875C11.5686 14.1875 11.2188 14.5372 11.2188 14.9687ZM14.3438 14.9687V18.0937C14.3438 18.5253 14.6936 18.875 15.1251 18.875C15.5565 18.875 15.9064 18.5253 15.9064 18.0937V14.9687C15.9064 14.5372 15.5565 14.1875 15.1251 14.1875C14.6936 14.1875 14.3438 14.5372 14.3438 14.9687ZM8.0938 14.9687V18.0937C8.0938 18.5253 8.44353 18.875 8.87505 18.875C9.30642 18.875 9.65631 18.5253 9.65631 18.0937V14.9687C9.65631 14.5372 9.30642 14.1875 8.87505 14.1875C8.44353 14.1875 8.0938 14.5372 8.0938 14.9687Z" fill="black"/>
</svg>
